<?xml version="1.0" encoding="UTF-8" standalone="no"?>
<!DOCTYPE svg PUBLIC "-//W3C//DTD SVG 1.1//EN" "http://www.w3.org/Graphics/SVG/1.1/DTD/svg11.dtd">
<svg width="100%" height="100%" viewBox="0 0 3508 2481" version="1.1" xmlns="http://www.w3.org/2000/svg" xmlns:xlink="http://www.w3.org/1999/xlink" xml:space="preserve" xmlns:serif="http://www.serif.com/" style="fill-rule:evenodd;clip-rule:evenodd;stroke-linecap:round;stroke-linejoin:round;stroke-miterlimit:1.5;">
    <rect id="LOCKUP_HORIZONTAL" x="0" y="0" width="3507.874" height="2480.315" style="fill:none;"/>
    <g id="LOCKUP_HORIZONTAL1" serif:id="LOCKUP_HORIZONTAL">
        <g id="SYMBOLE">
            <g transform="matrix(0.536036,0,0,0.536036,-244.387387,452.720543)">
                <path d="M538,1643L1743,541L2586,1303L2379,1482L1752,920L1165,1461L1164,1959L1170,1963L1373,1891L1846,2036L2884,1123L2980,1199L1978,2397L1342,2089L902,2223L897,1650L538,1643Z" style="fill:#41988e;stroke:#fff;stroke-opacity:0;stroke-width:7.77px;"/>
            </g>
            <g transform="matrix(-0.536036,0,0,0.536036,1634.418919,452.720543)">
                <path d="M1778,1343.892L1907,1344C1952.334,1342.185 1977.92,1363.333 1985,1406L1985,1543L1778,1543L1778,1343.892Z" style="fill:#41988e;stroke:#fff;stroke-opacity:0;stroke-width:7.77px;"/>
            </g>
            <g transform="matrix(0.536036,0,0,0.536036,-244.387387,452.720543)">
                <path d="M1773,1343.892L1907,1344C1952.334,1342.185 1977.92,1363.333 1985,1406L1985,1543L1773,1543L1773,1343.892Z" style="fill:#41988e;stroke:#fff;stroke-opacity:0;stroke-width:7.77px;"/>
            </g>
            <g transform="matrix(0.536036,0,0,-0.536036,-244.387387,2132.0637)">
                <path d="M1773,1343.892L1907,1344C1952.334,1342.185 1977.92,1363.333 1985,1406L1985,1543L1773,1543L1773,1343.892Z" style="fill:#41988e;stroke:#fff;stroke-opacity:0;stroke-width:7.77px;"/>
            </g>
            <g transform="matrix(-0.536036,-0,0,-0.536036,1634.418919,2132.0637)">
                <path d="M1778,1343.892L1907,1344C1952.334,1342.185 1977.92,1363.333 1985,1406L1985,1543L1778,1543L1778,1343.892Z" style="fill:#41988e;stroke:#fff;stroke-opacity:0;stroke-width:7.77px;"/>
            </g>
            <g transform="matrix(0.465037,0,0,0.465037,1158.692318,1477.641585)">
                <rect x="628.057" y="-384.528" width="3658.937" height="756" style="fill:#fff;fill-opacity:0;"/>
                <g>
                    <g transform="matrix(537.591562,0,0,537.591562,628.057443,197.471555)">
                        <path d="M0.429,0.019C0.367,0.019 0.312,0.009 0.264,-0.012C0.216,-0.033 0.176,-0.061 0.144,-0.097C0.112,-0.133 0.088,-0.173 0.072,-0.218C0.055,-0.263 0.047,-0.31 0.047,-0.358L0.047,-0.381C0.047,-0.427 0.055,-0.471 0.071,-0.515C0.087,-0.559 0.11,-0.599 0.141,-0.635C0.172,-0.67 0.21,-0.699 0.256,-0.72C0.302,-0.74 0.354,-0.751 0.414,-0.751C0.478,-0.751 0.534,-0.739 0.584,-0.715C0.633,-0.691 0.673,-0.658 0.703,-0.616C0.733,-0.574 0.751,-0.525 0.756,-0.469L0.613,-0.469C0.608,-0.5 0.597,-0.527 0.578,-0.549C0.559,-0.572 0.536,-0.589 0.508,-0.601C0.479,-0.613 0.448,-0.619 0.414,-0.619C0.38,-0.619 0.349,-0.613 0.321,-0.601C0.294,-0.589 0.27,-0.572 0.251,-0.55C0.232,-0.528 0.217,-0.501 0.207,-0.471C0.196,-0.44 0.191,-0.406 0.191,-0.368C0.191,-0.328 0.197,-0.292 0.208,-0.26C0.219,-0.228 0.235,-0.201 0.256,-0.178C0.276,-0.156 0.301,-0.139 0.331,-0.128C0.36,-0.116 0.393,-0.11 0.429,-0.11C0.478,-0.11 0.521,-0.12 0.558,-0.14C0.594,-0.16 0.621,-0.187 0.638,-0.22L0.613,-0.105L0.613,-0.293L0.744,-0.293L0.744,-0.131C0.712,-0.083 0.67,-0.046 0.616,-0.02C0.562,0.006 0.5,0.019 0.429,0.019ZM0.407,-0.265L0.407,-0.371L0.805,-0.371L0.805,-0.265L0.407,-0.265Z" style="fill:#626262;fill-rule:nonzero;"/>
                    </g>
                    <g transform="matrix(537.591562,0,0,537.591562,1066.732157,197.471555)">
                        <path d="M0.046,-0L0.046,-0.122L0.449,-0.61L0.451,-0.589L0.421,-0.629L0.441,-0.613L0.058,-0.613L0.058,-0.73L0.606,-0.73L0.606,-0.608L0.202,-0.12L0.199,-0.144L0.232,-0.099L0.208,-0.117L0.611,-0.117L0.611,-0L0.046,-0Z" style="fill:#626262;fill-rule:nonzero;"/>
                    </g>
                    <g transform="matrix(537.591562,0,0,537.591562,1415.897876,197.471555)">
                        <rect x="0.092" y="-0.73" width="0.142" height="0.73" style="fill:#626262;fill-rule:nonzero;"/>
                    </g>
                    <g transform="matrix(537.591562,0,0,537.591562,1591.152726,197.471555)">
                        <path d="M0.09,-0L0.09,-0.73L0.284,-0.73L0.467,-0.294L0.485,-0.294L0.667,-0.73L0.864,-0.73L0.864,-0L0.723,-0L0.723,-0.623L0.741,-0.621L0.543,-0.149L0.399,-0.149L0.201,-0.621L0.22,-0.623L0.22,-0L0.09,-0Z" style="fill:#626262;fill-rule:nonzero;"/>
                    </g>
                    <g transform="matrix(537.591562,0,0,537.591562,2104.015076,197.471555)">
                        <path d="M0.09,-0L0.09,-0.73L0.284,-0.73L0.467,-0.294L0.485,-0.294L0.667,-0.73L0.864,-0.73L0.864,-0L0.723,-0L0.723,-0.623L0.741,-0.621L0.543,-0.149L0.399,-0.149L0.201,-0.621L0.22,-0.623L0.22,-0L0.09,-0Z" style="fill:#626262;fill-rule:nonzero;"/>
                    </g>
                    <g transform="matrix(537.591562,0,0,537.591562,2616.877426,197.471555)">
                        <path d="M0.432,0.019C0.366,0.019 0.309,0.007 0.261,-0.016C0.213,-0.039 0.173,-0.069 0.141,-0.107C0.109,-0.145 0.086,-0.186 0.07,-0.23C0.055,-0.273 0.047,-0.315 0.047,-0.356L0.047,-0.378C0.047,-0.423 0.055,-0.467 0.071,-0.511C0.087,-0.555 0.111,-0.596 0.144,-0.632C0.176,-0.668 0.216,-0.697 0.264,-0.719C0.312,-0.74 0.368,-0.751 0.432,-0.751C0.496,-0.751 0.552,-0.74 0.601,-0.719C0.648,-0.697 0.689,-0.668 0.721,-0.632C0.753,-0.596 0.778,-0.555 0.794,-0.511C0.81,-0.467 0.818,-0.423 0.818,-0.378L0.818,-0.356C0.818,-0.315 0.81,-0.273 0.794,-0.23C0.779,-0.186 0.755,-0.145 0.724,-0.107C0.692,-0.069 0.652,-0.039 0.604,-0.016C0.555,0.007 0.498,0.019 0.432,0.019ZM0.432,-0.113C0.47,-0.113 0.503,-0.12 0.533,-0.133C0.563,-0.146 0.588,-0.165 0.61,-0.188C0.631,-0.212 0.646,-0.239 0.657,-0.269C0.668,-0.299 0.674,-0.332 0.674,-0.366C0.674,-0.402 0.668,-0.436 0.657,-0.467C0.646,-0.497 0.63,-0.524 0.609,-0.547C0.588,-0.57 0.563,-0.587 0.533,-0.6C0.503,-0.613 0.47,-0.619 0.432,-0.619C0.395,-0.619 0.362,-0.613 0.332,-0.6C0.302,-0.587 0.277,-0.57 0.256,-0.547C0.235,-0.524 0.218,-0.497 0.208,-0.467C0.197,-0.436 0.191,-0.402 0.191,-0.366C0.191,-0.332 0.197,-0.299 0.208,-0.269C0.218,-0.239 0.235,-0.212 0.256,-0.188C0.277,-0.165 0.302,-0.146 0.332,-0.133C0.362,-0.12 0.395,-0.113 0.432,-0.113Z" style="fill:#626262;fill-rule:nonzero;"/>
                    </g>
                </g>
                <g>
                    <g transform="matrix(403.193671,0,0,403.193671,3205.225331,197.471555)">
                        <path d="M0.343,0.018C0.282,0.018 0.231,0.008 0.188,-0.012C0.145,-0.032 0.113,-0.06 0.09,-0.095C0.067,-0.13 0.056,-0.17 0.056,-0.215L0.154,-0.215C0.154,-0.193 0.16,-0.171 0.172,-0.149C0.183,-0.127 0.203,-0.109 0.231,-0.094C0.258,-0.079 0.296,-0.072 0.343,-0.072C0.387,-0.072 0.423,-0.079 0.451,-0.091C0.479,-0.104 0.5,-0.122 0.513,-0.143C0.526,-0.164 0.533,-0.186 0.533,-0.211C0.533,-0.241 0.52,-0.266 0.494,-0.286C0.468,-0.305 0.43,-0.317 0.38,-0.322L0.299,-0.329C0.234,-0.334 0.183,-0.354 0.144,-0.389C0.105,-0.424 0.086,-0.469 0.086,-0.526C0.086,-0.571 0.097,-0.61 0.119,-0.643C0.14,-0.676 0.17,-0.703 0.209,-0.722C0.248,-0.74 0.293,-0.75 0.344,-0.75C0.395,-0.75 0.439,-0.741 0.478,-0.722C0.517,-0.703 0.547,-0.677 0.569,-0.643C0.59,-0.61 0.601,-0.57 0.601,-0.523L0.503,-0.523C0.503,-0.546 0.497,-0.568 0.486,-0.589C0.476,-0.61 0.458,-0.627 0.435,-0.64C0.412,-0.653 0.381,-0.66 0.344,-0.66C0.308,-0.66 0.278,-0.654 0.255,-0.641C0.231,-0.628 0.213,-0.612 0.202,-0.592C0.19,-0.571 0.184,-0.549 0.184,-0.526C0.184,-0.499 0.194,-0.476 0.215,-0.455C0.236,-0.434 0.266,-0.422 0.307,-0.419L0.388,-0.412C0.438,-0.408 0.481,-0.398 0.517,-0.381C0.554,-0.363 0.582,-0.341 0.602,-0.312C0.621,-0.284 0.631,-0.25 0.631,-0.211C0.631,-0.166 0.619,-0.127 0.595,-0.092C0.571,-0.057 0.537,-0.03 0.494,-0.011C0.451,0.008 0.4,0.018 0.343,0.018Z" style="fill:#626262;fill-rule:nonzero;stroke:#294267;stroke-width:0.01px;stroke-linecap:butt;stroke-miterlimit:2;"/>
                    </g>
                    <g transform="matrix(403.193671,0,0,403.193671,3480.606608,197.471555)">
                        <path d="M0.028,-0L0.291,-0.73L0.457,-0.73L0.728,-0L0.627,-0L0.382,-0.666L0.43,-0.642L0.312,-0.642L0.363,-0.666L0.126,-0L0.028,-0ZM0.185,-0.218L0.218,-0.306L0.533,-0.306L0.566,-0.218L0.185,-0.218ZM0.33,-0.788L0.182,-0.952L0.296,-0.952L0.42,-0.788L0.33,-0.788Z" style="fill:#626262;fill-rule:nonzero;stroke:#294267;stroke-width:0.01px;stroke-linecap:butt;stroke-miterlimit:2;"/>
                    </g>
                    <g transform="matrix(403.193671,0,0,403.193671,3785.421024,197.471555)">
                        <path d="M0.106,-0L0.106,-0.734L0.204,-0.734L0.204,-0L0.106,-0ZM0.557,-0L0.315,-0.325L0.43,-0.325L0.676,-0L0.557,-0ZM0.167,-0.264L0.167,-0.351L0.363,-0.351C0.394,-0.351 0.42,-0.357 0.442,-0.37C0.464,-0.383 0.481,-0.4 0.493,-0.422C0.505,-0.445 0.511,-0.47 0.511,-0.499C0.511,-0.528 0.505,-0.553 0.493,-0.576C0.481,-0.598 0.464,-0.616 0.442,-0.629C0.42,-0.642 0.394,-0.648 0.363,-0.648L0.167,-0.648L0.167,-0.734L0.345,-0.734C0.398,-0.734 0.445,-0.726 0.485,-0.71C0.525,-0.694 0.556,-0.669 0.578,-0.636C0.6,-0.603 0.611,-0.56 0.611,-0.507L0.611,-0.491C0.611,-0.438 0.6,-0.395 0.578,-0.362C0.555,-0.329 0.524,-0.304 0.484,-0.288C0.445,-0.272 0.398,-0.264 0.345,-0.264L0.167,-0.264Z" style="fill:#626262;fill-rule:nonzero;stroke:#294267;stroke-width:0.01px;stroke-linecap:butt;stroke-miterlimit:2;"/>
                    </g>
                    <g transform="matrix(403.193671,0,0,403.193671,4067.656594,197.471555)">
                        <path d="M0.106,-0L0.106,-0.73L0.204,-0.73L0.204,-0L0.106,-0ZM0.184,-0L0.184,-0.088L0.518,-0.088L0.518,-0L0.184,-0Z" style="fill:#626262;fill-rule:nonzero;stroke:#294267;stroke-width:0.01px;stroke-linecap:butt;stroke-miterlimit:2;"/>
                    </g>
                </g>
            </g>
        </g>
    </g>
</svg>
